<svg id="Layer_1" data-name="Layer 1" xmlns="http://www.w3.org/2000/svg" viewBox="0 0 190.78 220.22"><defs><style>.cls-1{fill:#fff;}</style></defs><path class="cls-1" d="M129,237.88a32,32,0,0,1-17.94-5.5c-23-15.54-55.49-42.95-68.37-54a23.34,23.34,0,0,1-8-17.8V86.43A23.41,23.41,0,0,1,45.29,66.7l71.45-45.15a24.75,24.75,0,0,1,26.65,0l71.44,45.14a23.44,23.44,0,0,1,10.62,19.74v73.44a23.55,23.55,0,0,1-6.17,16.06c-17.64,19.13-53,43.67-72.56,56.6A32.08,32.08,0,0,1,129,237.88ZM130.06,33a10.86,10.86,0,0,0-5.8,1.7L52.81,79.85a7.83,7.83,0,0,0-3.54,6.58v74.14a7.77,7.77,0,0,0,2.66,5.92c12.68,10.89,44.61,37.87,67,53a18,18,0,0,0,20,.08c19-12.56,53.28-36.32,69.86-54.3a7.88,7.88,0,0,0,2-5.37V86.43a7.84,7.84,0,0,0-3.55-6.59L135.87,34.71A10.87,10.87,0,0,0,130.06,33Z" transform="translate(-34.67 -17.66)"/><path class="cls-1" d="M84,143.24a1.23,1.23,0,0,1,1.16-1.39l14.38-1.39c.81-.12,1.39.23,1.39,1.16a16.69,16.69,0,0,0,.35,4.64,3.56,3.56,0,0,0,3.59,2.44,3.31,3.31,0,0,0,3.48-2.44c.24-.81.35-1.86.35-9.63s-.11-8.81-.35-9.62a3.43,3.43,0,0,0-3.59-2.44,3.66,3.66,0,0,0-3.83,2.9,1.5,1.5,0,0,1-1.51,1.16H86.11c-.69,0-1-.46-1-1.16V84.67a1.1,1.1,0,0,1,1.16-1.16h38.62A1.1,1.1,0,0,1,126,84.67V97.78a1.1,1.1,0,0,1-1.16,1.16H101.19a.61.61,0,0,0-.69.69V113h.23c1.62-1.39,4.52-2.78,8.93-2.78,7.89,0,12.87,3.25,15.19,10.21,1.05,2.89,1.39,6.14,1.39,16.23,0,9.05-.34,12-1,14.27-2.67,7.89-9.39,12.64-20.06,12.64S87.51,158.9,85.07,150.9A24.48,24.48,0,0,1,84,143.24Z" transform="translate(-34.67 -17.66)"/><path class="cls-1" d="M134.13,123c0-20.3.58-24.24,1.62-27.49,2.79-8.47,9.63-13.11,19.95-13.11s17.17,4.64,20,13.11c1,3.25,1.63,7.19,1.63,27.49s-.58,24.24-1.63,27.48c-2.78,8.47-9.62,13.11-20,13.11s-17.16-4.64-19.95-13.11C134.71,147.19,134.13,143.24,134.13,123ZM155.7,148.7a3.33,3.33,0,0,0,3.48-2.44c.35-.93.47-2.2.47-23.31s-.12-22.39-.47-23.32a3.71,3.71,0,0,0-7,0c-.34.93-.46,2.21-.46,23.32s.12,22.38.46,23.31A3.34,3.34,0,0,0,155.7,148.7Z" transform="translate(-34.67 -17.66)"/></svg>