<svg id="Layer_1" data-name="Layer 1" xmlns="http://www.w3.org/2000/svg" viewBox="0 0 190.78 220.22"><defs><style>.cls-1{fill:#fff;}</style></defs><path class="cls-1" d="M129,237.88a32,32,0,0,1-17.94-5.5c-23-15.54-55.49-42.95-68.37-54a23.34,23.34,0,0,1-8-17.8V86.43A23.41,23.41,0,0,1,45.29,66.7l71.45-45.15a24.75,24.75,0,0,1,26.65,0l71.44,45.14a23.44,23.44,0,0,1,10.62,19.74v73.44a23.55,23.55,0,0,1-6.17,16.06c-17.64,19.13-53,43.67-72.56,56.6A32.08,32.08,0,0,1,129,237.88ZM130.06,33a10.86,10.86,0,0,0-5.8,1.7L52.81,79.85a7.83,7.83,0,0,0-3.54,6.58v74.14a7.77,7.77,0,0,0,2.66,5.92c12.68,10.89,44.61,37.87,67,53a18,18,0,0,0,20,.08c19-12.56,53.28-36.32,69.86-54.3a7.88,7.88,0,0,0,2-5.37V86.43a7.84,7.84,0,0,0-3.55-6.59L135.87,34.71A10.87,10.87,0,0,0,130.06,33Z" transform="translate(-34.67 -17.66)"/><path class="cls-1" d="M84,148.7a3.52,3.52,0,0,1,.58-2.09l20-29c3.24-4.64,4.17-7,4.17-13.34a16.33,16.33,0,0,0-.35-4.64,3.42,3.42,0,0,0-3.48-2.43,3.57,3.57,0,0,0-3.59,2.43c-.23.82-.35,1.74-.35,6.15,0,.93-.58,1.28-1.39,1.16l-14.38-1.39A1.23,1.23,0,0,1,84,104.16c0-4.06.23-6.73,1-9.17,2.44-8,9.4-12.64,20.07-12.64S122.53,87.11,125.2,95a31.77,31.77,0,0,1,1,9.28c0,8.82-1.5,13.57-6.37,20.42l-15.55,22.15V147h20.76a1.09,1.09,0,0,1,1.16,1.16v13.1a1.09,1.09,0,0,1-1.16,1.16H85.19A1.09,1.09,0,0,1,84,161.22Z" transform="translate(-34.67 -17.66)"/><path class="cls-1" d="M134.59,143.24a1.23,1.23,0,0,1,1.16-1.39l14.39-1.39c.81-.12,1.39.23,1.39,1.16a16.28,16.28,0,0,0,.35,4.64,3.56,3.56,0,0,0,3.59,2.44,3.31,3.31,0,0,0,3.48-2.44c.23-.81.35-1.86.35-9.63s-.12-8.81-.35-9.62a3.43,3.43,0,0,0-3.59-2.44,3.66,3.66,0,0,0-3.83,2.9,1.5,1.5,0,0,1-1.51,1.16H136.68c-.69,0-1-.46-1-1.16V84.67a1.1,1.1,0,0,1,1.16-1.16h38.62a1.1,1.1,0,0,1,1.16,1.16V97.78a1.1,1.1,0,0,1-1.16,1.16H151.76a.62.62,0,0,0-.7.69V113h.24c1.62-1.39,4.52-2.78,8.93-2.78,7.88,0,12.87,3.25,15.19,10.21,1,2.89,1.39,6.14,1.39,16.23,0,9.05-.35,12-1,14.27-2.67,7.89-9.4,12.64-20.07,12.64s-17.63-4.64-20.06-12.64A24.49,24.49,0,0,1,134.59,143.24Z" transform="translate(-34.67 -17.66)"/></svg>