<svg id="Layer_1" data-name="Layer 1" xmlns="http://www.w3.org/2000/svg" viewBox="0 0 190.78 220.22"><defs><style>.cls-1{fill:#fff;}</style></defs><path class="cls-1" d="M129,237.88a32,32,0,0,1-17.94-5.5c-23-15.54-55.49-42.95-68.37-54a23.34,23.34,0,0,1-8-17.8V86.43A23.41,23.41,0,0,1,45.29,66.7l71.45-45.15a24.75,24.75,0,0,1,26.65,0l71.44,45.14a23.44,23.44,0,0,1,10.62,19.74v73.44a23.55,23.55,0,0,1-6.17,16.06c-17.64,19.13-53,43.67-72.56,56.6A32.08,32.08,0,0,1,129,237.88ZM130.06,33a10.86,10.86,0,0,0-5.8,1.7L52.81,79.85a7.83,7.83,0,0,0-3.54,6.58v74.14a7.77,7.77,0,0,0,2.66,5.92c12.68,10.89,44.61,37.87,67,53a18,18,0,0,0,20,.08c19-12.56,53.28-36.32,69.86-54.3a7.88,7.88,0,0,0,2-5.37V86.43a7.84,7.84,0,0,0-3.55-6.59L135.87,34.71A10.87,10.87,0,0,0,130.06,33Z" transform="translate(-34.67 -17.66)"/><path class="cls-1" d="M109,123c0-20.3.58-24.24,1.63-27.49,2.78-8.47,9.62-13.11,19.94-13.11S147.73,87,150.51,95.46c1.05,3.25,1.63,7.19,1.63,27.49s-.58,24.24-1.63,27.48c-2.78,8.47-9.62,13.11-19.95,13.11s-17.16-4.64-19.94-13.11C109.57,147.19,109,143.24,109,123Zm21.57,25.75a3.33,3.33,0,0,0,3.48-2.44c.35-.93.47-2.2.47-23.31s-.12-22.39-.47-23.32a3.71,3.71,0,0,0-7,0c-.34.93-.46,2.21-.46,23.32s.12,22.38.46,23.31A3.34,3.34,0,0,0,130.56,148.7Z" transform="translate(-34.67 -17.66)"/></svg>